PathFileType	4	(X/Y/Z)	C:\Users\Basilio\Documents\Thesis Gigler\squatting_fais\c3dfiles\041\SLS_pre_back4\markers_experimental.trc
DataRate	CameraRate	NumFrames	NumMarkers	Units	OrigDataRate	OrigDataStartFrame	OrigNumFrames
200.000000	200.000000	4	64	mm	200.000000	954	1272
Frame#	Time	FHD			LBHD			RBHD			C7			T10			CLAV			LSHO			LUUPA			LMUPA			LDUPA			LLEP			LMEP			LRAD			LUL			LRFIN			RSHO			RUPA1			RMUPA			RDUPA			RLEP			RMEP			RRAD			RUL			RUFIN			LASI			RASI			USACR			LSACR			RSACR			LTHI1			LTHI2			LTHI3			LTHI4			LLFC			LMFC			LTIB1			LTIB2			LTIB3			LTIB4			LLMAL			LMMAL			LHEE			LMT1			LMT2			LMT5			RTHI			RTHI2			RTHI3			RTHI4			RLFC			RMFC			RTIB1			RTIB2			RTIB3			RTIB4			RLMAL			RMMAL			RHEE			RMT1			RMT2			RMT5			*61			*62			*63			
		X1	Y1	Z1	X2	Y2	Z2	X3	Y3	Z3	X4	Y4	Z4	X5	Y5	Z5	X6	Y6	Z6	X7	Y7	Z7	X8	Y8	Z8	X9	Y9	Z9	X10	Y10	Z10	X11	Y11	Z11	X12	Y12	Z12	X13	Y13	Z13	X14	Y14	Z14	X15	Y15	Z15	X16	Y16	Z16	X17	Y17	Z17	X18	Y18	Z18	X19	Y19	Z19	X20	Y20	Z20	X21	Y21	Z21	X22	Y22	Z22	X23	Y23	Z23	X24	Y24	Z24	X25	Y25	Z25	X26	Y26	Z26	X27	Y27	Z27	X28	Y28	Z28	X29	Y29	Z29	X30	Y30	Z30	X31	Y31	Z31	X32	Y32	Z32	X33	Y33	Z33	X34	Y34	Z34	X35	Y35	Z35	X36	Y36	Z36	X37	Y37	Z37	X38	Y38	Z38	X39	Y39	Z39	X40	Y40	Z40	X41	Y41	Z41	X42	Y42	Z42	X43	Y43	Z43	X44	Y44	Z44	X45	Y45	Z45	X46	Y46	Z46	X47	Y47	Z47	X48	Y48	Z48	X49	Y49	Z49	X50	Y50	Z50	X51	Y51	Z51	X52	Y52	Z52	X53	Y53	Z53	X54	Y54	Z54	X55	Y55	Z55	X56	Y56	Z56	X57	Y57	Z57	X58	Y58	Z58	X59	Y59	Z59	X60	Y60	Z60	X61	Y61	Z61	X62	Y62	Z62	X63	Y63	Z63	X64	Y64	Z64	

955	4.77	-153.7923431396485	1762.130615234375	-1100.311401367188	-328.9120788574219	1695.108276367188	-1178.792846679688	-312.5388793945313	1702.525756835938	-1025.884399414063	-369.2748413085938	1554.3994140625	-1114.110229492188	-408.5711669921876	1238.278686523438	-1088.583984375	-209.2393951416016	1485.664916992188	-1107.450439453125	-286.7761535644532	1531.517456054688	-1288.312622070313	-360.0914001464844	1342.55029296875	-1362.487670898438	-333.7453002929688	1303.017822265625	-1348.320556640625	-386.4889526367189	1278.1728515625	-1369.454467773438	-404.9147033691407	1234.726196289063	-1366.359008789063	-422.4169006347657	1211.989501953125	-1283.483032226563	-400.7232666015626	957.0359497070315	-1347.414306640625	-455.158172607422	979.0681762695315	-1393.795776367188	-409.5003967285157	880.179382324219	-1368.841430664063	-284.9253540039063	1539.717163085938	-936.5296020507815	-397.3208923339845	1351.652587890625	-850.4057617187502	-352.6165466308594	1330.429321289063	-838.883972167969	-388.8817749023439	1283.919311523438	-831.0255126953127	-390.4197387695314	1240.801391601563	-824.9455566406252	-410.9228820800782	1219.482666015625	-909.1739501953127	-373.2375793457032	972.437194824219	-833.620544433594	-433.2141723632814	991.690612792969	-791.2639160156252	-368.1788940429688	899.8330078125002	-803.0640258789065	-237.8897705078126	1040.114501953125	-1169.71533203125	-267.2154235839844	1044.306640625	-946.7793579101565	-423.1633911132814	1128.854614257813	-1080.629150390625	-437.367156982422	1103.196655273438	-1108.366821289063	-446.4308471679689	1105.509033203125	-1054.461547851563	-340.6470642089844	831.3071289062502	-1232.32373046875	-300.6572265625001	757.9826660156251	-1216.947631835938	-253.8159332275391	765.4484252929689	-1203.844482421875	-325.4915466308594	704.0682983398439	-1204.716186523438	-294.6561584472657	527.9066772460939	-1169.4970703125	-305.7112121582032	520.5868530273439	-1050.970581054688	-287.4649658203126	339.8579406738282	-1095.539428710938	-328.1992797851563	295.7039794921876	-1161.205078125	-291.9455871582032	290.9156799316407	-1129.2578125	-310.1290588378907	217.2158203125001	-1091.870971679688	-370.5725402832032	126.0988693237305	-1133.887084960938	-344.6282348632813	134.2342071533203	-1047.984252929688	-441.3816223144532	110.5680389404297	-1097.169555664063	-239.3445587158204	61.46259689331056	-1049.180297851563	-227.2836303710938	56.36375045776369	-1092.73388671875	-270.3815307617188	43.20053100585938	-1151.483642578125	-367.9486389160157	792.190856933594	-854.4878540039065	-321.1118469238282	746.4566040039064	-838.6351318359377	-288.2184143066407	752.6085205078126	-840.9019775390627	-334.7136840820313	662.3645629882814	-842.742614746094	-343.0043334960938	562.1056518554689	-848.072692871094	-299.9239196777344	519.8389282226564	-946.2855224609377	-437.6088256835939	431.1419677734376	-865.9019165039065	-543.8252563476564	445.5375976562501	-904.736022949219	-519.8390502929689	410.0945434570314	-885.6470947265627	-532.6403198242189	356.2639770507813	-907.246765136719	-656.7345581054689	319.9332885742188	-937.5239257812502	-593.1593017578126	302.3938293457032	-991.9902343750002	-701.5827026367189	318.8844909667969	-1012.146728515625	-551.8314819335939	179.862777709961	-935.4627685546877	-568.7805786132814	184.9046173095703	-886.202575683594	-633.0418701171876	196.4468383789063	-868.4495849609377	-4217.090820312501	853.075134277344	-3944.670898437501	nan	nan	nan	nan	nan	nan	
956	4.775	-154.7527923583985	1762.52734375	-1100.063354492188	-329.8795166015626	1695.374145507813	-1178.622924804688	-313.1259765625001	1702.871704101563	-1025.900146484375	-369.9296875000001	1554.494140625	-1113.855224609375	-408.9440917968751	1238.293212890625	-1088.424682617188	-210.2457275390626	1485.888549804688	-1107.095947265625	-287.4826049804688	1531.618530273438	-1288.15185546875	-360.1604003906251	1342.118530273438	-1362.025634765625	-333.8967590332032	1302.674438476563	-1347.715209960938	-386.401336669922	1277.728881835938	-1368.959594726563	-404.755584716797	1234.275756835938	-1365.616088867188	-422.5735168457032	1211.892456054688	-1282.643188476563	-401.1556701660157	956.7537841796877	-1345.810424804688	-455.3236083984376	978.7393798828127	-1392.780151367188	-410.2704162597657	879.8181762695315	-1366.75830078125	-285.6541442871094	1539.874633789063	-936.2300415039065	-398.0108947753907	1351.859741210938	-850.1674804687502	-353.1119995117188	1330.53759765625	-838.773620605469	-389.5992736816407	1284.156127929688	-830.8356933593752	-391.2578430175782	1240.943359375	-824.7283935546877	-411.5627441406251	1219.693725585938	-909.0253906250002	-375.7180480957032	972.755310058594	-832.7883300781252	-435.4036865234376	992.3649902343752	-790.3084716796877	-371.4590759277344	899.847351074219	-802.1237792968752	-237.943588256836	1040.268920898438	-1169.544067382813	-267.3234252929688	1044.565551757813	-946.5650634765627	-423.3777465820314	1128.967407226563	-1080.50048828125	-437.5547180175782	1103.27197265625	-1108.207641601563	-446.3592529296876	1105.604125976563	-1054.286376953125	-340.8464050292969	831.5104980468752	-1232.20068359375	-300.9646606445313	758.0863037109376	-1216.828247070313	-253.9886779785157	765.6823120117189	-1204.255493164063	-325.8063354492188	704.1868286132814	-1204.5166015625	-295.1852416992188	528.0150756835939	-1169.497314453125	-306.1698608398438	520.6738891601564	-1050.895751953125	-287.7193908691407	339.9416503906251	-1095.501586914063	-328.3162536621094	295.8036193847657	-1159.943115234375	-292.3226013183594	291.0222778320313	-1129.03515625	-310.4287414550782	217.3354797363282	-1091.795776367188	-370.5874633789063	126.0444793701172	-1133.765991210938	-344.6157836914063	134.107177734375	-1047.845825195313	-441.1331787109376	109.9679794311524	-1097.371948242188	-239.2376708984376	60.89868927001955	-1049.298461914063	-227.2523193359376	56.35959243774415	-1092.67529296875	-270.3864746093751	43.26708602905274	-1151.496948242188	-367.6521911621094	792.317077636719	-854.5268554687502	-320.8702697753907	746.6745605468751	-838.5538330078127	-287.8045654296876	752.9213867187501	-840.8088989257815	-334.1112670898438	662.5991210937501	-842.7583618164065	-341.9821166992188	562.1139526367189	-848.2988891601565	-299.0097351074219	520.0219116210939	-946.182312011719	-435.6236877441407	430.6673583984376	-865.0089111328127	-542.1917114257814	443.7221679687501	-904.3259277343752	-517.8525390625001	408.5826416015626	-884.865173339844	-530.3500976562501	354.6775512695313	-906.2117309570315	-654.0024414062501	317.0244750976563	-936.3933105468752	-590.3004760742189	299.5371398925782	-990.6342773437502	-698.8490600585939	314.7183227539063	-1010.871643066406	-547.7708740234376	177.9509429931641	-933.0654296875002	-564.9047851562501	183.2604675292969	-883.6702270507815	-629.1688232421876	194.4716186523438	-866.043151855469	-4216.863769531251	853.1589355468752	-3944.656982421876	nan	nan	nan	nan	nan	nan	
957	4.78	-155.5213165283203	1762.755737304688	-1099.8876953125	-330.3973388671876	1695.542602539063	-1178.450805664063	-314.3735046386719	1702.88330078125	-1025.382202148438	-370.6091308593751	1554.629760742188	-1113.673217773438	-409.1997375488282	1238.357177734375	-1088.345703125	-210.9052886962891	1486.110229492188	-1106.880004882813	-288.1090087890626	1531.733642578125	-1287.991577148438	-360.2192993164063	1341.728881835938	-1361.567260742188	-333.9808654785157	1302.417114257813	-1346.974243164063	-385.9261779785157	1277.1064453125	-1368.369750976563	-404.5555725097657	1233.74951171875	-1364.897583007813	-422.8046875000001	1211.717163085938	-1281.975708007813	-401.400115966797	956.4168090820315	-1344.38427734375	-455.4426574707032	978.410583496094	-1391.762817382813	-411.0420227050782	879.4851074218752	-1364.60791015625	-286.5383911132813	1540.034301757813	-935.9241333007815	-398.7880249023439	1352.031494140625	-849.933044433594	-353.9886474609376	1330.629272460938	-838.2510375976565	-390.2639160156251	1284.30224609375	-830.5321044921877	-391.5898437500001	1241.094970703125	-824.6218261718752	-412.2560424804689	1219.821044921875	-908.8243408203127	-377.9203796386719	972.7752685546877	-831.552673339844	-437.5104980468751	993.2410278320315	-789.230651855469	-374.4610595703126	899.7502441406252	-801.3604125976565	-238.0176544189454	1040.504150390625	-1169.34033203125	-267.3843688964844	1044.858276367188	-946.4132080078127	-423.520721435547	1129.088623046875	-1080.420654296875	-437.7124328613282	1103.384399414063	-1108.101318359375	-446.4583740234376	1105.710571289063	-1054.247802734375	-341.0581970214844	831.8182373046877	-1232.059448242188	-301.1179504394532	758.1357421875001	-1216.878173828125	-254.7300109863282	765.7902221679689	-1203.640869140625	-326.2268981933594	704.3369750976564	-1204.550048828125	-295.7711791992188	528.0955200195314	-1169.503295898438	-306.5617675781251	520.7338867187501	-1050.894409179688	-288.0898132324219	340.0140075683594	-1095.349853515625	-328.5461425781251	295.8132324218751	-1159.855102539063	-293.2561950683594	291.2187500000001	-1128.84130859375	-310.7393188476563	217.4656524658204	-1091.53125	-370.5390014648438	126.0571060180664	-1133.712280273438	-344.6728515625001	134.087142944336	-1047.749633789063	-441.5343627929689	110.3925552368164	-1097.313842773438	-239.2400817871094	60.86339950561525	-1049.297485351563	-227.2797546386719	56.4325523376465	-1092.69189453125	-270.3990783691407	43.27020645141602	-1151.462768554688	-367.3519287109376	792.4922485351565	-854.5162353515627	-320.5717773437501	746.9475097656251	-838.4929809570315	-287.5558776855469	753.1864624023439	-840.7145996093752	-333.5072631835938	662.8704223632814	-842.738952636719	-341.1349182128907	562.2291259765626	-848.4946289062502	-297.8635253906251	520.1664428710939	-946.119812011719	-434.0375366210939	429.8020019531251	-864.6936035156252	-540.4418334960939	441.5897521972657	-903.9638671875002	-516.0858154296876	407.1189575195314	-884.1502685546877	-528.2141723632814	352.5449218750001	-905.4486083984377	-651.2729492187501	314.0340881347657	-935.2653808593752	-587.3519287109376	296.5540466308594	-989.2847900390627	-696.0459594726564	310.5034484863282	-1009.875061035156	-544.0905761718751	175.6802673339844	-930.442565917969	-560.8712768554689	181.8971862792969	-880.9060668945315	-625.4256591796876	192.6354217529297	-863.583923339844	-4216.851074218751	853.136169433594	-3944.620117187501	nan	nan	nan	nan	nan	nan	
958	4.785	-156.4914093017578	1763.1669921875	-1099.70947265625	-331.1673583984376	1695.736938476563	-1178.236328125	-315.1667785644532	1703.265380859375	-1025.300048828125	-371.4073486328126	1554.798217773438	-1113.462280273438	-409.4459228515626	1238.485595703125	-1088.151489257813	-211.4237213134766	1486.532836914063	-1106.82373046875	-288.8362731933594	1531.88671875	-1287.840087890625	-360.1888122558594	1341.291870117188	-1361.152709960938	-334.0799865722657	1302.223876953125	-1346.279174804688	-385.8245849609376	1276.68310546875	-1367.843872070313	-404.3169555664064	1233.248779296875	-1364.255493164063	-422.9148559570314	1211.63916015625	-1281.287841796875	-401.240203857422	956.0913085937502	-1342.923706054688	-454.704071044922	977.8736572265627	-1390.720703125	-411.2274780273439	879.0625610351565	-1362.453735351563	-287.1901245117188	1540.269897460938	-935.7415771484377	-399.3110961914064	1352.134033203125	-849.6721191406252	-354.6689147949219	1330.771484375	-838.070495605469	-391.0720520019532	1284.362426757813	-830.1436767578127	-392.2694091796876	1241.355834960938	-824.3132324218752	-412.7405395507814	1219.957763671875	-908.587097167969	-379.6869201660157	972.9976196289065	-830.759216308594	-439.2417602539064	993.822692871094	-788.3111572265627	-377.1459655761719	899.6920166015627	-800.3050537109377	-238.0857849121094	1040.646118164063	-1169.201904296875	-267.6104431152344	1045.18115234375	-946.1568603515627	-423.6990661621095	1129.21240234375	-1080.351318359375	-437.8835449218751	1103.523559570313	-1108.029907226563	-446.5133361816407	1105.82763671875	-1054.164428710938	-341.3836059570313	832.0967407226565	-1231.870483398438	-301.5547180175782	758.3618774414064	-1216.701904296875	-255.2149963378907	765.8101806640626	-1203.056030273438	-326.5215454101563	704.4842529296876	-1204.425659179688	-296.4349670410157	528.1987915039064	-1169.517578125	-306.9793090820313	520.6982421875001	-1050.949462890625	-288.5492858886719	340.2086791992188	-1095.315307617188	-328.7701721191407	295.8257446289063	-1159.697265625	-293.6907348632813	291.2452392578126	-1128.598266601563	-310.9453430175782	217.5194244384766	-1091.473754882813	-370.5762634277344	126.0691833496094	-1133.63330078125	-344.8470458984376	134.1885375976563	-1047.69384765625	-441.4148559570314	110.1563034057617	-1097.452880859375	-239.2231140136719	60.85560989379884	-1049.254760742188	-227.2908935546876	56.48100662231447	-1092.694458007813	-270.4043884277344	43.2772560119629	-1151.413818359375	-367.0579223632813	792.716491699219	-854.4008789062502	-320.1822509765626	747.1901855468751	-838.4255371093752	-287.3378601074219	753.4826660156251	-840.5372314453127	-332.8152770996094	662.9841308593751	-842.8569335937502	-340.4744262695313	562.2833862304689	-848.4713134765627	-297.5137634277344	520.5281982421876	-946.2606201171877	-432.1859741210939	428.8958435058595	-863.7167968750002	-538.7081298828126	439.6582946777345	-903.5167236328127	-514.0059814453126	405.2167053222657	-883.472106933594	-525.2035522460939	350.7854919433594	-904.159118652344	-648.4702148437501	310.7453918457032	-933.9448242187502	-584.0548706054689	293.7830810546876	-986.9051513671877	-693.2628173828126	306.1953125000001	-1008.544738769531	-539.6740722656251	173.6574096679688	-927.7456054687502	-556.9628906250001	180.2509765625	-878.4697265625002	-621.4196777343751	190.5588836669922	-861.072937011719	-4216.740722656251	853.0012207031252	-3944.623779296876	nan	nan	nan	nan	nan	nan	
